<svg xmlns="http://www.w3.org/2000/svg" width="189" height="37.001" viewBox="0 0 189 37.001">
    <defs>
        <style>
            .cls-1{fill:#ff534b}.cls-2{fill:#ffccc9}.cls-3{fill:#af130c}
        </style>
    </defs>
    <g id="logo" transform="translate(-80 -21)">
        <g id="Grupo_120" data-name="Grupo 120" transform="translate(-954 -325)">
            <path id="Subtração_22" d="M25.2 37H0V11.1L10.8 0H36v25.9L25.2 37z" class="cls-1" data-name="Subtração 22" transform="translate(1034 346)"/>
            <path id="Caminho_1804" d="M0 0h11.1L0 11.1z" class="cls-2" data-name="Caminho 1804" transform="rotate(180 522.55 178.55)"/>
            <path id="Caminho_1805" d="M0 0h11.1L0 11.1z" class="cls-3" data-name="Caminho 1805" transform="translate(1058.9 371.9)"/>
        </g>
        <path id="Caminho_1808" d="M-68.55-.823l.936-2.27a5.145 5.145 0 0 0 2.954 1.052q2.232 0 2.232-1.559a2.209 2.209 0 0 0-.526-1.393 6.748 6.748 0 0 0-2.169-1.486 10.424 10.424 0 0 1-2.213-1.354 3.618 3.618 0 0 1-.877-1.267 4.135 4.135 0 0 1-.307-1.617 3.538 3.538 0 0 1 1.214-2.748 4.481 4.481 0 0 1 3.115-1.091 5.808 5.808 0 0 1 3.636.926l-.77 2.183a4.766 4.766 0 0 0-2.817-.955 1.885 1.885 0 0 0-1.36.463 1.592 1.592 0 0 0-.483 1.2q0 1.228 2.72 2.553A8.874 8.874 0 0 1-61.2-6.888a3.968 3.968 0 0 1 .965 1.374 4.451 4.451 0 0 1 .335 1.748 3.529 3.529 0 0 1-1.37 2.855A5.62 5.62 0 0 1-64.943.21 6.533 6.533 0 0 1-68.55-.823zm11.113-7.688h-1.209v-1.958h1.209v-.974L-55-13.49v3.021h2.866v1.958H-55v4.57a2.694 2.694 0 0 0 .351 1.583 1.45 1.45 0 0 0 1.228.463 3.024 3.024 0 0 0 1.638-.477v2.241A7.764 7.764 0 0 1-54.2.161a3.152 3.152 0 0 1-2.4-.882 3.5 3.5 0 0 1-.838-2.509zm9.456-6a1.362 1.362 0 0 1 1 .414 1.361 1.361 0 0 1 .414 1 1.361 1.361 0 0 1-.414 1 1.362 1.362 0 0 1-1 .414 1.362 1.362 0 0 1-1-.414 1.361 1.361 0 0 1-.414-1 1.361 1.361 0 0 1 .414-1 1.362 1.362 0 0 1 1-.416zM-49.239-.034v-8.438h-1.335v-2h3.8V-.034zm13.491-9.607l-1.042 1.822a3.217 3.217 0 0 0-2.3-.809 2.756 2.756 0 0 0-2.188.921 3.744 3.744 0 0 0-.8 2.548q0 3.284 3.129 3.284a3.536 3.536 0 0 0 2.388-.9l.9 1.919a6.186 6.186 0 0 1-1.857.838A8.8 8.8 0 0 1-39.4.161a5.138 5.138 0 0 1-3.816-1.408 5.307 5.307 0 0 1-1.4-3.912 5.369 5.369 0 0 1 1.53-3.985 5.66 5.66 0 0 1 4.172-1.52 5.084 5.084 0 0 1 3.167 1.023zm8.705 9.607l-3.071-4.726-1.17 1.237v3.489h-2.436l-.015-12.939 2.452-1.968v8.477l3.48-4h2.934L-28.4-6.513l4.25 6.479zm8.881 1.676a3.35 3.35 0 0 1-1.672 1.729 6.232 6.232 0 0 1-2.988.687V1.905Q-20 1.905-20 .492a8.69 8.69 0 0 0-.78-2.865l-3.266-8.1h2.525l2.846 7.21 2.564-7.21h2.525zM-6.649-.823l.936-2.27A5.145 5.145 0 0 0-2.76-2.041q2.232 0 2.232-1.559a2.209 2.209 0 0 0-.526-1.393 6.748 6.748 0 0 0-2.169-1.486 10.424 10.424 0 0 1-2.213-1.354A3.618 3.618 0 0 1-6.313-9.1a4.135 4.135 0 0 1-.307-1.617 3.538 3.538 0 0 1 1.214-2.743 4.481 4.481 0 0 1 3.115-1.091 5.808 5.808 0 0 1 3.636.926l-.77 2.183a4.766 4.766 0 0 0-2.818-.958 1.885 1.885 0 0 0-1.36.463 1.592 1.592 0 0 0-.483 1.2q0 1.228 2.72 2.553A8.874 8.874 0 0 1 .7-6.888a3.968 3.968 0 0 1 .965 1.374A4.451 4.451 0 0 1 2-3.766 3.529 3.529 0 0 1 .628-.911 5.62 5.62 0 0 1-3.042.21 6.533 6.533 0 0 1-6.649-.823zm20.061-3.683H5.955a2.646 2.646 0 0 0 .858 1.939 3.111 3.111 0 0 0 2.125.692 3.435 3.435 0 0 0 2.535-.867l.946 1.861A6.006 6.006 0 0 1 8.577.161 5.085 5.085 0 0 1 4.8-1.237a5.3 5.3 0 0 1-1.389-3.9 5.411 5.411 0 0 1 1.525-3.997 4.986 4.986 0 0 1 3.66-1.53 4.969 4.969 0 0 1 3.647 1.354 4.636 4.636 0 0 1 1.374 3.45 6.8 6.8 0 0 1-.205 1.354zM6.043-6.338h5.127a2.29 2.29 0 0 0-2.535-2.29 2.508 2.508 0 0 0-2.592 2.29zm8.88 5.632l.868-1.939a3.862 3.862 0 0 0 2.466.867q1.423 0 1.423-1.013a1.243 1.243 0 0 0-.429-.974 6.557 6.557 0 0 0-1.667-.9q-2.7-1.121-2.7-3.137a2.464 2.464 0 0 1 1.033-2.109 4.364 4.364 0 0 1 2.642-.755 6.644 6.644 0 0 1 3.061.731l-.7 1.89a3.319 3.319 0 0 0-2.22-.68q-1.277 0-1.277 1.013a.911.911 0 0 0 .419.721 8.656 8.656 0 0 0 1.794.862 4.6 4.6 0 0 1 1.979 1.311 2.921 2.921 0 0 1 .6 1.861 2.731 2.731 0 0 1-1.077 2.285 4.672 4.672 0 0 1-2.929.833 6.606 6.606 0 0 1-1.672-.171 8.2 8.2 0 0 1-1.614-.696zm8.6 0l.868-1.939a3.862 3.862 0 0 0 2.466.867q1.423 0 1.423-1.013a1.243 1.243 0 0 0-.429-.974 6.557 6.557 0 0 0-1.667-.9q-2.7-1.121-2.7-3.137a2.464 2.464 0 0 1 1.033-2.109 4.364 4.364 0 0 1 2.642-.755 6.644 6.644 0 0 1 3.061.731l-.7 1.89a3.319 3.319 0 0 0-2.223-.682q-1.277 0-1.277 1.013a.911.911 0 0 0 .419.721 8.656 8.656 0 0 0 1.794.862 4.6 4.6 0 0 1 1.979 1.311 2.921 2.921 0 0 1 .6 1.861 2.731 2.731 0 0 1-1.076 2.287 4.672 4.672 0 0 1-2.929.833 6.606 6.606 0 0 1-1.672-.171 8.2 8.2 0 0 1-1.614-.696zm11.15-13.807a1.362 1.362 0 0 1 1 .414 1.361 1.361 0 0 1 .414 1 1.361 1.361 0 0 1-.414 1 1.362 1.362 0 0 1-1 .414 1.362 1.362 0 0 1-1-.414 1.361 1.361 0 0 1-.414-1 1.361 1.361 0 0 1 .414-1 1.362 1.362 0 0 1 1-.414zM33.415-.034v-8.438H32.08v-2h3.8V-.034zm4.621-5.242a5.519 5.519 0 0 1 1.379-3.888 4.711 4.711 0 0 1 3.641-1.5 4.749 4.749 0 0 1 3.695 1.442 5.633 5.633 0 0 1 1.316 3.946 5.663 5.663 0 0 1-1.34 3.966A4.717 4.717 0 0 1 43.056.161a4.692 4.692 0 0 1-3.7-1.486 5.727 5.727 0 0 1-1.32-3.951zm2.535 0q0 3.449 2.486 3.449a2.137 2.137 0 0 0 1.808-.9 4.212 4.212 0 0 0 .668-2.553q0-3.4-2.476-3.4a2.15 2.15 0 0 0-1.813.9 4.1 4.1 0 0 0-.673 2.504zM56.733-.034v-6.031a3.022 3.022 0 0 0-.512-1.949 2.061 2.061 0 0 0-1.672-.614 2.59 2.59 0 0 0-1.145.3 2.64 2.64 0 0 0-.95.75v7.544h-2.437v-10.435h1.755l.448.974a3.637 3.637 0 0 1 2.934-1.169 3.894 3.894 0 0 1 2.939 1.116 4.3 4.3 0 0 1 1.077 3.113v6.4zm4.426-.672l.868-1.939a3.862 3.862 0 0 0 2.466.867q1.423 0 1.423-1.013a1.243 1.243 0 0 0-.429-.974 6.557 6.557 0 0 0-1.667-.9q-2.7-1.121-2.7-3.137a2.464 2.464 0 0 1 1.033-2.109 4.364 4.364 0 0 1 2.642-.755 6.644 6.644 0 0 1 3.061.731l-.7 1.89a3.319 3.319 0 0 0-2.223-.682q-1.277 0-1.277 1.013a.911.911 0 0 0 .419.721 8.656 8.656 0 0 0 1.794.862 4.6 4.6 0 0 1 1.979 1.311 2.921 2.921 0 0 1 .6 1.861 2.731 2.731 0 0 1-1.075 2.287 4.672 4.672 0 0 1-2.929.833 6.606 6.606 0 0 1-1.672-.171 8.2 8.2 0 0 1-1.613-.696z" class="cls-1" data-name="Caminho 1808" transform="translate(200.55 44.941)"/>
    </g>
</svg>
